<?xml version="1.0" encoding="UTF-8"?>
<svg version="1.1" xmlns="http://www.w3.org/2000/svg" width="64" height="64">
<path d="M0 0 C8.11140143 -0.47022617 15.4801898 1.9687215 21.9765625 6.87890625 C28.71459784 13.2706614 32.73419348 21.16857323 33.11328125 30.546875 C32.75736575 40.56335404 29.43055189 46.72396953 22.390625 53.875 C14.63106304 60.94404287 6.01597373 61.67144294 -4.19921875 61.234375 C-12.95495015 59.24796699 -18.89096869 54.35860534 -24.19921875 47.234375 C-27.12232833 41.62763952 -27.69156091 37.07380962 -27.63671875 30.796875 C-27.65669922 29.98927734 -27.67667969 29.18167969 -27.69726562 28.34960938 C-27.69087801 20.42258232 -24.74381076 13.93298345 -19.19921875 8.234375 C-12.26551709 3.234375 -12.26551709 3.234375 -9.19921875 3.234375 C-8.86921875 2.574375 -8.53921875 1.914375 -8.19921875 1.234375 C-5.47875586 0.53682041 -2.78716605 0.29703368 0 0 Z " fill="#F9F9F9" transform="translate(29.19921875,-0.234375)"/>
<path d="M0 0 C2.64 0 5.28 0 8 0 C8 0.66 8 1.32 8 2 C11.3 2 14.6 2 18 2 C18 1.34 18 0.68 18 0 C20.64 0 23.28 0 26 0 C26 0.66 26 1.32 26 2 C26.66 2 27.32 2 28 2 C28 2.66 28 3.32 28 4 C28.66 4 29.32 4 30 4 C31.61721949 8.38863711 32.49008187 12.46984053 32.9375 17.125 C33.13666016 18.92324219 33.13666016 18.92324219 33.33984375 20.7578125 C33 24 33 24 30.7109375 26.4140625 C27.54081829 28.26862792 25.61315959 28.33610787 22 28 C22 26.68 22 25.36 22 24 C21.443125 24.16242187 20.88625 24.32484375 20.3125 24.4921875 C17.80771628 25.04222447 15.562519 25.13281256 13 25.125 C11.7315625 25.12886719 11.7315625 25.12886719 10.4375 25.1328125 C8.15301056 25.00833711 6.19008426 24.63877457 4 24 C4 25.32 4 26.64 4 28 C2.35 28 0.7 28 -1 28 C-1 27.34 -1 26.68 -1 26 C-1.639375 25.855625 -2.27875 25.71125 -2.9375 25.5625 C-5 25 -5 25 -6 24 C-6.41654639 17.77117843 -6.57708209 11.79843469 -4 6 C-3.34 6 -2.68 6 -2 6 C-2 4.68 -2 3.36 -2 2 C-1.34 2 -0.68 2 0 2 C0 1.34 0 0.68 0 0 Z " fill="#090909" transform="translate(18,16)"/>
<path d="M0 0 C1.134375 0.020625 2.26875 0.04125 3.4375 0.0625 C3.4375 2.0425 3.4375 4.0225 3.4375 6.0625 C-2.3125 7.1875 -2.3125 7.1875 -4.5625 6.0625 C-4.605221 4.39638095 -4.60313832 2.72867115 -4.5625 1.0625 C-3.5625 0.0625 -3.5625 0.0625 0 0 Z " fill="#D4D4D4" transform="translate(38.5625,27.9375)"/>
<path d="M0 0 C1.98 0 3.96 0 6 0 C6 1.98 6 3.96 6 6 C5.34 6 4.68 6 4 6 C4 6.66 4 7.32 4 8 C2.68 7.67 1.36 7.34 0 7 C0 4.69 0 2.38 0 0 Z " fill="#E5E5E5" transform="translate(22,28)"/>
</svg>
