<?xml version="1.0" encoding="UTF-8"?>
<svg version="1.1" xmlns="http://www.w3.org/2000/svg" width="64" height="64">
<path d="M0 0 C7.60627186 5.91598923 11.61466446 12.9271499 13.1953125 22.5078125 C13.67055427 31.34730951 10.20393687 38.99947828 4.5625 45.625 C-0.2274672 50.93067535 -5.61795657 54.22123871 -12.80859375 54.75390625 C-14.41382787 54.78138412 -16.01980099 54.77945762 -17.625 54.75 C-18.46321289 54.73976807 -19.30142578 54.72953613 -20.16503906 54.71899414 C-26.56534462 54.49861686 -31.24604429 53.4693741 -36.1875 49.1875 C-36.82816406 48.65640625 -37.46882813 48.1253125 -38.12890625 47.578125 C-43.54181123 42.65113842 -47.24783507 36.97571367 -47.71875 29.53125 C-47.72921731 27.91666699 -47.7185944 26.3018175 -47.6875 24.6875 C-47.70296875 23.88441406 -47.7184375 23.08132812 -47.734375 22.25390625 C-47.68375786 14.44621183 -44.73450736 7.73450736 -39.1875 2.1875 C-25.53569391 -7.39984543 -14.25597713 -8.10633994 0 0 Z " fill="#FAFAFA" transform="translate(47.1875,5.8125)"/>
<path d="M0 0 C4.62 0 9.24 0 14 0 C14 2.64 14 5.28 14 8 C11.36 8 8.72 8 6 8 C6 10.97 6 13.94 6 17 C8.31 17 10.62 17 13 17 C13 19.31 13 21.62 13 24 C10.69 24 8.38 24 6 24 C6 31.26 6 38.52 6 46 C2.7 46 -0.6 46 -4 46 C-4 39.07 -4 32.14 -4 25 C-5.98 25 -7.96 25 -10 25 C-10 22.03 -10 19.06 -10 16 C-7.69 16 -5.38 16 -3 16 C-3.03480469 15.34773438 -3.06960937 14.69546875 -3.10546875 14.0234375 C-3.13253906 13.14945313 -3.15960937 12.27546875 -3.1875 11.375 C-3.22230469 10.51648437 -3.25710937 9.65796875 -3.29296875 8.7734375 C-3 6 -3 6 0 0 Z " fill="#0C0C0C" transform="translate(28,14)"/>
</svg>
