<?xml version="1.0" encoding="UTF-8"?>
<svg version="1.1" xmlns="http://www.w3.org/2000/svg" width="64" height="64">
<path d="M0 0 C1.31419922 -0.00708984 2.62839844 -0.01417969 3.98242188 -0.02148438 C12.37545481 0.03353803 19.12215374 0.22850326 25.6875 5.9375 C33.38256267 14.99051491 32.39355752 30.10069699 31.8125 41.4375 C31.19933094 48.87325444 30.30002444 55.08913946 24.8125 60.4375 C17.70912765 65.37510136 10.39007816 64.98528732 2.06713867 64.84912109 C-0.24800655 64.81253151 -2.56154819 64.80810315 -4.87695312 64.80859375 C-6.36720115 64.79876255 -7.85743848 64.78710552 -9.34765625 64.7734375 C-10.37138084 64.77009903 -10.37138084 64.77009903 -11.41578674 64.76669312 C-16.0350283 64.67661949 -19.83604395 63.85280852 -24.1875 62.4375 C-24.1875 61.7775 -24.1875 61.1175 -24.1875 60.4375 C-25.115625 60.004375 -25.115625 60.004375 -26.0625 59.5625 C-29.80433181 57.58153022 -30.96446187 55.38754657 -32.1875 51.4375 C-32.39956981 48.63657458 -32.51521865 45.93743094 -32.5234375 43.13671875 C-32.5334227 41.94391045 -32.5334227 41.94391045 -32.54360962 40.727005 C-32.55370719 39.04857689 -32.55842754 37.37010885 -32.55810547 35.69165039 C-32.56246857 33.14335797 -32.59878837 30.59681339 -32.63671875 28.04882812 C-32.64258984 26.4114642 -32.64655728 24.77409212 -32.6484375 23.13671875 C-32.66280853 22.38436447 -32.67717957 21.63201019 -32.69198608 20.8568573 C-32.64316905 15.11278655 -31.03009362 11.4217207 -28.1875 6.4375 C-27.5275 6.4375 -26.8675 6.4375 -26.1875 6.4375 C-26.1875 5.7775 -26.1875 5.1175 -26.1875 4.4375 C-17.40824337 0.40675772 -9.57348547 -0.14684713 0 0 Z M-24.1875 13.4375 C-26.7535098 19.53080425 -26.52005568 25.80643896 -26.5 32.3125 C-26.51611328 33.35019531 -26.53222656 34.38789062 -26.54882812 35.45703125 C-26.55313883 42.29380922 -26.34644542 49.64980607 -21.76708984 55.140625 C-16.88801469 59.14644373 -7.17094514 57.58430827 -1.25 57.5625 C-0.20392578 57.56636719 0.84214844 57.57023437 1.91992188 57.57421875 C11.79457538 58.03549721 11.79457538 58.03549721 20.8125 55.0625 C22.07454871 53.32967787 22.07454871 53.32967787 21.8125 50.4375 C22.4725 50.4375 23.1325 50.4375 23.8125 50.4375 C23.88683779 45.54454853 23.94119027 40.65192817 23.97729492 35.75854492 C23.99235114 34.09507519 24.01280063 32.43164495 24.03881836 30.76831055 C24.07534207 28.37278478 24.09225782 25.97778533 24.10546875 23.58203125 C24.12095261 22.8422554 24.13643646 22.10247955 24.15238953 21.34028625 C24.15384432 16.84383722 23.61640758 13.991905 20.8125 10.4375 C17.04002513 7.92251675 13.97748916 8.09656299 9.6015625 8.06640625 C8.79641205 8.05737778 7.9912616 8.0483493 7.16171265 8.03904724 C5.45875771 8.02454519 3.75574705 8.01565811 2.05273438 8.01196289 C-0.54653342 8.00007304 -3.14342128 7.95089755 -5.7421875 7.90039062 C-7.39842594 7.8909252 -9.05467893 7.88369074 -10.7109375 7.87890625 C-11.48504974 7.85937393 -12.25916199 7.83984161 -13.05673218 7.81971741 C-18.53184781 7.86525722 -20.86181157 9.12926679 -24.1875 13.4375 Z " fill="#FFFFFF" transform="translate(32.1875,-0.4375)"/>
<path d="M0 0 C4.46920706 1.96017853 7.04877748 4.5609698 9.3125 8.9375 C10.98815516 13.96446548 10.59382525 19.1442961 9 24.125 C8.505 25.053125 8.505 25.053125 8 26 C7.34 26 6.68 26 6 26 C6 26.66 6 27.32 6 28 C5.34 28 4.68 28 4 28 C4 28.66 4 29.32 4 30 C-2.25641423 32.89648807 -7.24020402 33.8343165 -14 32 C-19.09443513 29.41540188 -21.209873 25.27616379 -23 20 C-23.28875 19.195625 -23.5775 18.39125 -23.875 17.5625 C-24.11808234 12.57931204 -22.35370885 8.83495062 -19.47265625 4.9296875 C-13.81218646 -0.98209278 -7.84291344 -1.26795472 0 0 Z M-14 9 C-16.67402716 13.01104074 -16.93255974 16.28768487 -16 21 C-12.89182755 24.71464513 -11.12977349 25.86595908 -6.3125 26.4375 C-2.86759876 26.23021604 -2.86759876 26.23021604 0 24 C0 23.34 0 22.68 0 22 C0.66 22 1.32 22 2 22 C3.14184155 16.47621514 3.14184155 16.47621514 1.8125 11.1875 C-0.70663343 8.14716655 -2.4429964 6.23953902 -6.4375 5.625 C-9.59267336 6.08673269 -11.43373977 7.12732361 -14 9 Z " fill="#FFFFFF" transform="translate(38,16)"/>
<path d="M0 0 C1.134375 0.020625 2.26875 0.04125 3.4375 0.0625 C3.47991723 2.39544775 3.47842937 4.72952567 3.4375 7.0625 C2.4375 8.0625 2.4375 8.0625 0 8.25 C-2.5625 8.0625 -2.5625 8.0625 -4.5625 6.0625 C-4.75 3.5 -4.75 3.5 -4.5625 1.0625 C-3.5625 0.0625 -3.5625 0.0625 0 0 Z " fill="#FFFFFF" transform="translate(48.5625,11.9375)"/>
</svg>
