<?xml version="1.0" encoding="UTF-8"?>
<svg version="1.1" xmlns="http://www.w3.org/2000/svg" width="380" height="140">
<path d="M0 0 C-2.29562757 2.58234244 -4.45603563 3.83937158 -7.61865234 5.19799805 C-8.56147064 5.60719482 -9.50428894 6.0163916 -10.47567749 6.43798828 C-11.50206329 6.87481934 -12.5284491 7.31165039 -13.5859375 7.76171875 C-15.19403793 8.45624146 -15.19403793 8.45624146 -16.83462524 9.16479492 C-20.34521102 10.67913432 -23.86002596 12.18337789 -27.375 13.6875 C-29.80106506 14.73151846 -32.22684483 15.77620013 -34.65234375 16.8215332 C-39.50736436 18.91300059 -44.36391135 21.00086055 -49.22167969 23.0859375 C-55.06305781 25.59472796 -60.89725351 28.11955976 -66.7265625 30.65625 C-80.9641539 36.84922052 -95.22287758 42.98397167 -109.5625 48.9375 C-110.77099609 49.44047607 -111.97949219 49.94345215 -113.22460938 50.46166992 C-114.87879883 51.14386597 -114.87879883 51.14386597 -116.56640625 51.83984375 C-118.00415405 52.43333618 -118.00415405 52.43333618 -119.47094727 53.03881836 C-124.21811955 54.84300962 -128.27474263 55.18891907 -133.375 55.25 C-134.66148437 55.27578125 -135.94796875 55.3015625 -137.2734375 55.328125 C-143.86137736 54.74805482 -147.66763027 51.8274977 -152 47 C-154.49693146 42.00613707 -153.5849217 35.26806372 -152.234375 30.03125 C-148.94115606 21.40394404 -143.54125669 14.28816134 -138 7 C-137.40445313 6.2059375 -136.80890625 5.411875 -136.1953125 4.59375 C-135.80085938 4.0678125 -135.40640625 3.541875 -135 3 C-134.34 3.33 -133.68 3.66 -133 4 C-133.34224609 4.92619141 -133.34224609 4.92619141 -133.69140625 5.87109375 C-135.69554196 11.77565501 -136.92691197 16.91745861 -135 23 C-132.95325602 26.50449689 -130.93707175 28.68764275 -127 30 C-117.86333132 30.97145166 -109.50808871 28.65319021 -100.80078125 26.23046875 C-99.33243803 25.83280992 -97.8637659 25.43636383 -96.39479065 25.04104614 C-92.49800041 23.98878229 -88.60599036 22.91978272 -84.71468353 21.84744644 C-80.69886037 20.74418844 -76.67854213 19.65756366 -72.65869141 18.5690918 C-58.95926946 14.85413125 -45.27515365 11.08390291 -31.59765625 7.2890625 C-30.64532608 7.02529312 -29.69299591 6.76152374 -28.71180725 6.48976135 C-24.49130235 5.32006427 -20.27312784 4.14335355 -16.05981445 2.94799805 C-14.62062888 2.54467558 -13.18142155 2.1414307 -11.7421875 1.73828125 C-9.94563721 1.22841675 -9.94563721 1.22841675 -8.11279297 0.70825195 C-5.27409174 0.06236393 -2.89461195 -0.15129226 0 0 Z " fill="#EDEDEF" transform="translate(261,41)"/>
<path d="M0 0 C-2.27301934 2.54344286 -4.45086481 3.87616437 -7.5625 5.25 C-8.74005859 5.78367187 -8.74005859 5.78367187 -9.94140625 6.328125 C-12 7 -12 7 -14 6 C-13.67 5.34 -13.34 4.68 -13 4 C-13.99 3.67 -14.98 3.34 -16 3 C-14.27318563 2.49193553 -12.54342021 1.99389533 -10.8125 1.5 C-9.84957031 1.2215625 -8.88664063 0.943125 -7.89453125 0.65625 C-5.14654124 0.03322392 -2.80401584 -0.12302812 0 0 Z " fill="#ACACBA" transform="translate(261,41)"/>
<path d="M0 0 C0.66 0.33 1.32 0.66 2 1 C1.01 3.97 0.02 6.94 -1 10 C-1.66 9.34 -2.32 8.68 -3 8 C-3.99 8 -4.98 8 -6 8 C-4.02 5.36 -2.04 2.72 0 0 Z " fill="#9798A7" transform="translate(126,44)"/>
</svg>
