<?xml version="1.0" encoding="UTF-8"?>
<svg version="1.1" xmlns="http://www.w3.org/2000/svg" width="311" height="143">
<path d="M0 0 C1.98 0 3.96 0 6 0 C7.98 3.96 9.96 7.92 12 12 C15.44564908 7.71649448 15.44564908 7.71649448 18.25 3.1875 C18.8275 2.135625 19.405 1.08375 20 0 C21.65 0 23.3 0 25 0 C25.33725065 3.04127817 25.66992332 6.08294191 26 9.125 C26.09539062 9.9809375 26.19078125 10.836875 26.2890625 11.71875 C26.76845209 16.17022474 27.11765458 20.51441925 27 25 C25.00045254 25.04254356 22.99958364 25.04080783 21 25 C18.95301586 22.95301586 19.29954307 18.69588759 19 16 C17.35 18.97 15.7 21.94 14 25 C10 24 10 24 8.734375 22.15234375 C7.82291667 20.1015625 6.91145833 18.05078125 6 16 C5.34 18.97 4.68 21.94 4 25 C2.02 25 0.04 25 -2 25 C-1.8584453 21.95807987 -1.71190099 18.91653653 -1.5625 15.875 C-1.52318359 15.0190625 -1.48386719 14.163125 -1.44335938 13.28125 C-1.21843598 8.78278208 -0.86459117 4.43193793 0 0 Z " fill="#FCFCFD" transform="translate(85,67)"/>
<path d="M0 0 C1.4540625 0.0309375 1.4540625 0.0309375 2.9375 0.0625 C2.9375 3.3625 2.9375 6.6625 2.9375 10.0625 C5.5775 10.0625 8.2175 10.0625 10.9375 10.0625 C10.9375 6.7625 10.9375 3.4625 10.9375 0.0625 C12.93704746 0.01995644 14.93791636 0.02169217 16.9375 0.0625 C18.62266954 1.74766954 18.06758019 3.85017788 18.0703125 6.15625 C18.07224609 7.70119141 18.07224609 7.70119141 18.07421875 9.27734375 C18.07035156 10.36144531 18.06648438 11.44554688 18.0625 12.5625 C18.06830078 14.18865234 18.06830078 14.18865234 18.07421875 15.84765625 C18.07292969 16.87761719 18.07164062 17.90757813 18.0703125 18.96875 C18.06918457 19.92072266 18.06805664 20.87269531 18.06689453 21.85351562 C17.9375 24.0625 17.9375 24.0625 16.9375 25.0625 C14.93791636 25.10330783 12.93704746 25.10504356 10.9375 25.0625 C10.9375 21.7625 10.9375 18.4625 10.9375 15.0625 C8.2975 15.0625 5.6575 15.0625 2.9375 15.0625 C2.9375 18.3625 2.9375 21.6625 2.9375 25.0625 C0.6275 25.0625 -1.6825 25.0625 -4.0625 25.0625 C-4.09136984 21.08334841 -4.10925406 17.10422347 -4.125 13.125 C-4.13337891 11.98869141 -4.14175781 10.85238281 -4.15039062 9.68164062 C-4.15361328 8.60205078 -4.15683594 7.52246094 -4.16015625 6.41015625 C-4.16539307 5.40992432 -4.17062988 4.40969238 -4.17602539 3.37915039 C-4.00184986 -0.17515409 -3.63230701 0.07412871 0 0 Z " fill="#FDFDFE" transform="translate(201.0625,66.9375)"/>
<path d="M0 0 C3.90328159 0.04473675 5.03113881 0.22617439 8.375 2.5 C10.55631241 5.84467903 10.50470877 7.46946554 10.25 11.375 C11.24 12.86 11.24 12.86 12.25 14.375 C12.71857988 18.04554238 12.76209995 19.6982965 10.5 22.6875 C7.00667762 25.30749179 3.85382062 25.51418618 -0.4375 25.5 C-1.22511719 25.50257812 -2.01273437 25.50515625 -2.82421875 25.5078125 C-4.75 25.375 -4.75 25.375 -5.75 24.375 C-5.84932153 22.67941274 -5.88080007 20.97974253 -5.8828125 19.28125 C-5.88474609 17.73630859 -5.88474609 17.73630859 -5.88671875 16.16015625 C-5.88285156 15.07605469 -5.87898438 13.99195312 -5.875 12.875 C-5.87886719 11.79089844 -5.88273437 10.70679687 -5.88671875 9.58984375 C-5.88542969 8.55988281 -5.88414063 7.52992187 -5.8828125 6.46875 C-5.88168457 5.51677734 -5.88055664 4.56480469 -5.87939453 3.58398438 C-5.644285 -0.42973463 -3.57019411 0.13731516 0 0 Z M0.25 5.375 C0.25 7.025 0.25 8.675 0.25 10.375 C0.91 10.375 1.57 10.375 2.25 10.375 C2.25 8.725 2.25 7.075 2.25 5.375 C1.59 5.375 0.93 5.375 0.25 5.375 Z M3.25 6.375 C4.25 8.375 4.25 8.375 4.25 8.375 Z M0.25 14.375 C0.25 16.355 0.25 18.335 0.25 20.375 C1.9 20.045 3.55 19.715 5.25 19.375 C5.25 18.055 5.25 16.735 5.25 15.375 C3.6 15.045 1.95 14.715 0.25 14.375 Z " fill="#FDFDFD" transform="translate(119.75,66.625)"/>
<path d="M0 0 C0.87785156 -0.00257812 1.75570312 -0.00515625 2.66015625 -0.0078125 C4.9375 0.125 4.9375 0.125 6.9375 1.125 C6.6075 3.105 6.2775 5.085 5.9375 7.125 C4.90689453 7.05539063 4.90689453 7.05539063 3.85546875 6.984375 C2.95441406 6.94828125 2.05335938 6.9121875 1.125 6.875 C-0.21498047 6.80539063 -0.21498047 6.80539063 -1.58203125 6.734375 C-4.19090234 6.89479264 -4.19090234 6.89479264 -5.875 8.94921875 C-7.28223863 11.16151779 -7.28223863 11.16151779 -7.25 14.1875 C-6.388831 17.195201 -6.388831 17.195201 -4.203125 18.17578125 C-2.17228554 18.93554566 -0.16051919 19.58018408 1.9375 20.125 C1.9375 18.805 1.9375 17.485 1.9375 16.125 C0.6175 16.125 -0.7025 16.125 -2.0625 16.125 C-2.0625 14.475 -2.0625 12.825 -2.0625 11.125 C1.2375 11.125 4.5375 11.125 7.9375 11.125 C8.01832094 13.08266281 8.07660778 15.04126728 8.125 17 C8.17720703 18.63582031 8.17720703 18.63582031 8.23046875 20.3046875 C8.13378906 21.23539063 8.03710938 22.16609375 7.9375 23.125 C3.68774076 25.95817282 -0.07337108 25.65185201 -5.0625 25.125 C-8.32150019 23.66885098 -10.77514424 21.86982692 -13.0625 19.125 C-14.31505236 15.36734292 -14.82965326 12.01048919 -14.0625 8.125 C-10.46145786 2.16504735 -6.97891942 -0.02055646 0 0 Z " fill="#FCFDFD" transform="translate(186.0625,66.875)"/>
<path d="M0 0 C1.65 0 3.3 0 5 0 C6.50548369 3.78951244 8.00345314 7.58195031 9.5 11.375 C9.92925781 12.45523438 10.35851562 13.53546875 10.80078125 14.6484375 C11.40986328 16.1953125 11.40986328 16.1953125 12.03125 17.7734375 C12.40830078 18.72653809 12.78535156 19.67963867 13.17382812 20.66162109 C14 23 14 23 14 25 C12.02 25 10.04 25 8 25 C7.34 23.02 6.68 21.04 6 19 C3.69 19.33 1.38 19.66 -1 20 C-1.99 22.475 -1.99 22.475 -3 25 C-4.98 25 -6.96 25 -9 25 C-8.38965243 21.51423718 -7.48391539 18.4128077 -6.15234375 15.13671875 C-5.61577148 13.80737305 -5.61577148 13.80737305 -5.06835938 12.45117188 C-4.50858398 11.0831543 -4.50858398 11.0831543 -3.9375 9.6875 C-3.56044922 8.75615234 -3.18339844 7.82480469 -2.79492188 6.86523438 C-1.86716875 4.57521083 -0.93541999 2.28690004 0 0 Z M2 10 C1.67 11.32 1.34 12.64 1 14 C1.99 13.67 2.98 13.34 4 13 C3.34 12.01 2.68 11.02 2 10 Z " fill="#FCFCFD" transform="translate(68,67)"/>
<path d="M0 0 C1.98 0 3.96 0 6 0 C6 2.64 6 5.28 6 8 C7.98 8 9.96 8 12 8 C12 5.36 12 2.72 12 0 C13.98 0 15.96 0 18 0 C18 6.6 18 13.2 18 20 C16.02 20 14.04 20 12 20 C12 17.36 12 14.72 12 12 C10.02 12 8.04 12 6 12 C6 14.64 6 17.28 6 20 C4.02 20 2.04 20 0 20 C0 13.4 0 6.8 0 0 Z " fill="#FDFDFD" transform="translate(134,28)"/>
<path d="M0 0 C6.6 0 13.2 0 20 0 C20 1.98 20 3.96 20 6 C18.02 6 16.04 6 14 6 C14 12.27 14 18.54 14 25 C11.69 25 9.38 25 7 25 C7 18.73 7 12.46 7 6 C4.69 6 2.38 6 0 6 C0 4.02 0 2.04 0 0 Z " fill="#FDFDFD" transform="translate(220,67)"/>
<path d="M0 0 C12.59717314 -0.27385159 12.59717314 -0.27385159 16 2 C17.54586876 5.09173752 17.29359521 7.59429552 17 11 C15.375 13.4375 15.375 13.4375 13 15 C9.75 15.25 9.75 15.25 7 15 C7 16.65 7 18.3 7 20 C4.69 20 2.38 20 0 20 C0 13.4 0 6.8 0 0 Z M7 4 C7 6.31 7 8.62 7 11 C8.32 10.34 9.64 9.68 11 9 C10.73323796 7.01508358 10.73323796 7.01508358 10 5 C9.01 4.67 8.02 4.34 7 4 Z " fill="#FCFDFE" transform="translate(189,28)"/>
<path d="M0 0 C12.59717314 -0.27385159 12.59717314 -0.27385159 16 2 C17.54586876 5.09173752 17.29359521 7.59429552 17 11 C15.375 13.4375 15.375 13.4375 13 15 C9.75 15.25 9.75 15.25 7 15 C7 16.65 7 18.3 7 20 C4.69 20 2.38 20 0 20 C0 13.4 0 6.8 0 0 Z M7 4 C7 6.31 7 8.62 7 11 C7.99 11 8.98 11 10 11 C10.33 9.35 10.66 7.7 11 6 C9.68 5.34 8.36 4.68 7 4 Z " fill="#FBFCFD" transform="translate(115,28)"/>
<path d="M0 0 C1.98 0 3.96 0 6 0 C7 1 7 1 7.11352539 2.76586914 C7.10828857 3.51473389 7.10305176 4.26359863 7.09765625 5.03515625 C7.09282227 6.24848633 7.09282227 6.24848633 7.08789062 7.48632812 C7.07951172 8.33646484 7.07113281 9.18660156 7.0625 10.0625 C7.05798828 10.91650391 7.05347656 11.77050781 7.04882812 12.65039062 C7.03700373 14.76695663 7.01906769 16.88348685 7 19 C9.64 19 12.28 19 15 19 C15 20.98 15 22.96 15 25 C10.05 25 5.1 25 0 25 C0 16.75 0 8.5 0 0 Z " fill="#FDFDFE" transform="translate(145,67)"/>
<path d="M0 0 C0.90105469 0.01804687 1.80210937 0.03609375 2.73046875 0.0546875 C3.41753906 0.07789062 4.10460937 0.10109375 4.8125 0.125 C5.1425 1.775 5.4725 3.425 5.8125 5.125 C3.5025 5.125 1.1925 5.125 -1.1875 5.125 C0.46577712 6.94360483 1.64101095 8.05438686 3.9375 9 C5.8125 10.125 5.8125 10.125 6.875 12.4375 C6.8125 15.125 6.8125 15.125 4.9375 17.9375 C0.83721619 20.80769867 -2.31898868 20.79453987 -7.1875 20.125 C-7.8475 19.795 -8.5075 19.465 -9.1875 19.125 C-9.1875 17.475 -9.1875 15.825 -9.1875 14.125 C-4.7325 15.115 -4.7325 15.115 -0.1875 16.125 C-0.1875 15.135 -0.1875 14.145 -0.1875 13.125 C-1.115625 12.8775 -2.04375 12.63 -3 12.375 C-6.39191223 11.04483834 -7.60960855 10.37360005 -9.1875 7.125 C-9.0625 4.5 -9.0625 4.5 -8.1875 2.125 C-4.87379 -0.08414 -3.8428979 -0.09981553 0 0 Z " fill="#FCFCFD" transform="translate(216.1875,27.875)"/>
<path d="M0 0 C1.98 0 3.96 0 6 0 C6 8.25 6 16.5 6 25 C4.02 25 2.04 25 0 25 C-1.68516954 23.31483046 -1.13008019 21.21232212 -1.1328125 18.90625 C-1.13474609 17.36130859 -1.13474609 17.36130859 -1.13671875 15.78515625 C-1.13285156 14.70105469 -1.12898437 13.61695312 -1.125 12.5 C-1.12886719 11.41589844 -1.13273438 10.33179687 -1.13671875 9.21484375 C-1.13542969 8.18488281 -1.13414062 7.15492187 -1.1328125 6.09375 C-1.13168457 5.14177734 -1.13055664 4.18980469 -1.12939453 3.20898438 C-1 1 -1 1 0 0 Z " fill="#FDFDFE" transform="translate(163,67)"/>
<path d="M0 0 C1.98 0 3.96 0 6 0 C6 8.25 6 16.5 6 25 C4.02 25 2.04 25 0 25 C0 16.75 0 8.5 0 0 Z " fill="#FCFDFE" transform="translate(135,67)"/>
<path d="M0 0 C1.98 0 3.96 0 6 0 C6 4.95 6 9.9 6 15 C7.98 15 9.96 15 12 15 C11.67 16.65 11.34 18.3 11 20 C7.37 20 3.74 20 0 20 C0 13.4 0 6.8 0 0 Z " fill="#FDFDFD" transform="translate(166,28)"/>
<path d="M0 0 C2.31 0 4.62 0 7 0 C7 6.6 7 13.2 7 20 C4.69 20 2.38 20 0 20 C0 13.4 0 6.8 0 0 Z " fill="#FDFDFD" transform="translate(179,28)"/>
<path d="M0 0 C0 1.65 0 3.3 0 5 C1.98 5 3.96 5 6 5 C6 6.32 6 7.64 6 9 C4.02 9 2.04 9 0 9 C0.33 11.97 0.66 14.94 1 18 C1.99 18.33 2.98 18.66 4 19 C4 20.32 4 21.64 4 23 C1.125 22.6875 1.125 22.6875 -2 22 C-4.20914 18.68629 -4.22481553 17.6553979 -4.125 13.8125 C-4.10695312 12.91144531 -4.08890625 12.01039062 -4.0703125 11.08203125 C-4.04710937 10.39496094 -4.02390625 9.70789063 -4 9 C-4.99 9 -5.98 9 -7 9 C-7 7.68 -7 6.36 -7 5 C-6.01 5 -5.02 5 -4 5 C-3.87625 4.360625 -3.7525 3.72125 -3.625 3.0625 C-3.41875 2.381875 -3.2125 1.70125 -3 1 C-1 0 -1 0 0 0 Z " fill="#FCFCFE" transform="translate(256,69)"/>
<path d="M0 0 C1.98 0 3.96 0 6 0 C6 6.6 6 13.2 6 20 C4.02 20 2.04 20 0 20 C0 13.4 0 6.8 0 0 Z " fill="#FDFDFE" transform="translate(156,28)"/>
<path d="M0 0 C2.3125 0 2.3125 0 5 1 C6.41288147 3.61051928 7.135305 6.13285344 8 9 C9.32 6.03 10.64 3.06 12 0 C13.32 0 14.64 0 16 0 C14.06375702 6.20477864 11.74390859 12.10825719 9 18 C8.34 18 7.68 18 7 18 C5.82887054 15.37690901 4.66294036 12.75171858 3.5 10.125 C3.16613281 9.37863281 2.83226562 8.63226563 2.48828125 7.86328125 C2.17246094 7.14785156 1.85664063 6.43242188 1.53125 5.6953125 C1.23798828 5.03547363 0.94472656 4.37563477 0.64257812 3.69580078 C0 2 0 2 0 0 Z " fill="#FCFCFE" transform="translate(263,74)"/>
<path d="" fill="#FFFFFF" transform="translate(0,0)"/>
</svg>
