<?xml version="1.0" encoding="UTF-8"?>
<svg version="1.1" xmlns="http://www.w3.org/2000/svg" width="64" height="64">
<path d="M0 0 C3.49154863 2.48882112 5.88388302 4.89326457 8.1875 8.5 C8.92033203 9.62921875 8.92033203 9.62921875 9.66796875 10.78125 C14.56358609 18.93582669 14.91652016 28.08067687 12.9140625 37.33203125 C9.82112089 46.3597198 3.28032454 52.40146981 -4.79296875 57.02734375 C-12.52821289 60.60633731 -22.4714304 60.26717307 -30.375 57.4375 C-38.20591988 53.74027881 -44.01250518 48.17728426 -47.92578125 40.42578125 C-50.66371029 31.69427663 -50.79851669 20.65414633 -46.9375 12.25 C-41.96685621 4.21295905 -35.52575922 -0.87470799 -26.75 -4.25 C-16.7497034 -6.25005932 -8.99278503 -4.89578555 0 0 Z M-39 16 C-38.67 16.99 -38.34 17.98 -38 19 C-37.01257813 18.84144531 -36.02515625 18.68289062 -35.0078125 18.51953125 C-24.19996717 16.99145066 -14.04450351 17.30127399 -3.734375 21.02734375 C-1.15793288 21.94382102 1.30999157 22.53366642 4 23 C4 21.68 4 20.36 4 19 C2.50292061 18.36803616 1.00213297 17.74485607 -0.5 17.125 C-1.3353125 16.77695312 -2.170625 16.42890625 -3.03125 16.0703125 C-9.61631895 13.69622185 -15.54385413 12.63708744 -22.5 12.6875 C-23.2417749 12.68878906 -23.9835498 12.69007812 -24.74780273 12.69140625 C-30.06929938 12.78516679 -34.20944958 13.55376149 -39 16 Z M-37 26 C-36.67 26.99 -36.34 27.98 -36 29 C-35.13375 28.835 -34.2675 28.67 -33.375 28.5 C-24.74764445 27.30760127 -16.0835016 27.02684142 -7.91015625 30.265625 C-5.32948803 31.25778374 -2.73290142 31.64962802 0 32 C0.33 31.01 0.66 30.02 1 29 C-10.94869022 22.59891595 -24.27778695 19.89333774 -37 26 Z M-35 36 C-34.67 36.99 -34.34 37.98 -34 39 C-33.30519531 38.84015625 -32.61039063 38.6803125 -31.89453125 38.515625 C-23.35016637 36.9935519 -15.9117952 37.60923063 -8 41 C-5.16464548 41.25514536 -5.16464548 41.25514536 -3 41 C-3.16129905 39.0327762 -3.16129905 39.0327762 -4 37 C-5.97809863 35.89584898 -5.97809863 35.89584898 -8.375 35.3125 C-9.16648437 35.08175781 -9.95796875 34.85101563 -10.7734375 34.61328125 C-11.50820313 34.41089844 -12.24296875 34.20851562 -13 34 C-13.99 33.67 -14.98 33.34 -16 33 C-26.01576433 32.25804086 -26.01576433 32.25804086 -35 36 Z " fill="#FFFFFF" transform="translate(49,5)"/>
</svg>
