<?xml version="1.0" encoding="UTF-8"?>
<svg version="1.1" xmlns="http://www.w3.org/2000/svg" width="64" height="64">
<path d="M0 0 C3.2351133 2.12836401 3.89806563 3.67620847 5.0625 7.375 C7.11367495 12.8330115 13.03603947 14.69921694 18 17 C18.02688151 18.64574566 18.04634123 20.29161413 18.0625 21.9375 C18.07410156 22.85402344 18.08570313 23.77054688 18.09765625 24.71484375 C18 27 18 27 17 28 C14.85546875 27.984375 14.85546875 27.984375 12.1875 27.75 C11.31480469 27.68296875 10.44210938 27.6159375 9.54296875 27.546875 C6.66911353 26.92884162 5.27133069 25.80839006 3 24 C3.02094727 24.78648926 3.04189453 25.57297852 3.06347656 26.38330078 C3.14687753 29.96373598 3.19873776 33.54396642 3.25 37.125 C3.28351562 38.3625 3.31703125 39.6 3.3515625 40.875 C3.47450027 52.30821284 3.47450027 52.30821284 -1 57 C-6.70177909 61.39512138 -12.82476192 62.69290736 -20 62 C-27.43833842 59.11013938 -32.10993375 54.64512776 -35.75 47.625 C-37.97419787 41.17482616 -37.38593039 36.19993031 -34.453125 30.1484375 C-30.77929403 24.71669816 -25.18659171 22.05420867 -18.9375 20.625 C-16.9884375 20.315625 -16.9884375 20.315625 -15 20 C-14.71125 20.639375 -14.4225 21.27875 -14.125 21.9375 C-13.17176549 24.15206079 -13.17176549 24.15206079 -11 25 C-11 17.08 -11 9.16 -11 1 C-7.53887061 -0.73056469 -3.78470029 -0.47308754 0 0 Z M-21 37.6875 C-23.25161274 40.74772207 -23.25161274 40.74772207 -22.9375 43.75 C-22.1059527 46.1478805 -22.1059527 46.1478805 -20 48 C-16.96851447 47.80650092 -14.78541928 47.58815118 -12.3203125 45.7421875 C-10.59763619 43.46907024 -10.68999828 42.13003962 -10.8125 39.3125 C-10.83957031 38.50425781 -10.86664063 37.69601563 -10.89453125 36.86328125 C-10.92933594 36.24839844 -10.96414062 35.63351563 -11 35 C-15.37641945 34.48512712 -17.99602951 34.37890151 -21 37.6875 Z " fill="#FFFFFF" transform="translate(41,1)"/>
<path d="" fill="#FFFFFF" transform="translate(0,0)"/>
</svg>
