<?xml version="1.0" encoding="UTF-8"?>
<svg version="1.1" xmlns="http://www.w3.org/2000/svg" width="64" height="64">
<path d="M0 0 C18.69086839 -1.79599125 18.69086839 -1.79599125 23.7421875 2.1328125 C25.48707988 5.01952386 26.75523871 7.86801997 28 11 C29.05924584 12.75704287 30.16076916 14.48964327 31.3125 16.1875 C31.78300781 16.92355469 32.25351562 17.65960937 32.73828125 18.41796875 C33.15464844 18.94003906 33.57101563 19.46210938 34 20 C34.66 20 35.32 20 36 20 C37.47769218 18.36567245 38.88269319 16.66523632 40.25 14.9375 C41.05050781 13.93976562 41.85101563 12.94203125 42.67578125 11.9140625 C43.44277344 10.95242188 44.20976563 9.99078125 45 9 C46.94812515 6.59662877 48.91466938 4.28877751 51 2 C51.66 2 52.32 2 53 2 C53 1.34 53 0.68 53 0 C55.31 0 57.62 0 60 0 C58.44930033 3.49110398 56.36600251 6.18681178 53.9375 9.125 C53.14472656 10.08921875 52.35195313 11.0534375 51.53515625 12.046875 C48.35730598 15.74865436 44.99239057 19.25008491 41.5546875 22.7109375 C39.75935035 24.88146598 39.75935035 24.88146598 40.04296875 27.484375 C41.14652481 30.38515093 42.53661673 32.41953307 44.4375 34.875 C48.36195056 40.08162664 52.0023703 45.42645724 55.58569336 50.87255859 C57.26345691 53.41634074 58.91714438 55.89935222 60.85546875 58.25390625 C61.23316406 58.83011719 61.61085937 59.40632813 62 60 C61.67 60.99 61.34 61.98 61 63 C45.91561793 65.07040538 45.91561793 65.07040538 41.24658203 61.75488281 C37.72586804 58.00267929 35.3744181 53.52690439 33 49 C31.37272062 46.30469716 29.69728425 43.65200664 28 41 C27.34 41 26.68 41 26 41 C24.60674046 42.55240341 23.28619872 44.17029985 22 45.8125 C18.65547986 49.96487525 15.3039632 54.09476335 11.8125 58.125 C11.03519531 59.03507812 10.25789062 59.94515625 9.45703125 60.8828125 C6.59478074 63.34917144 4.71885803 63.73090752 1 64 C0.67 62.68 0.34 61.36 0 60 C0.804375 59.401875 1.60875 58.80375 2.4375 58.1875 C6.4388938 54.86558816 9.51635728 50.84792087 12.73828125 46.7890625 C15.30398333 43.62513972 18.04480479 40.67390085 20.8828125 37.75390625 C22.19342758 36.07784443 22.19342758 36.07784443 21.875 34.09765625 C17.31943338 23.17649877 8.70461629 12.94414312 1.28515625 3.8125 C0 2 0 2 0 0 Z M9 4 C8.76560935 6.17778051 8.76560935 6.17778051 10.75 7.76953125 C11.4925 8.50558594 12.235 9.24164063 13 10 C14.37243143 11.86772422 15.7018891 13.76737763 17 15.6875 C17.79215328 16.84951466 18.58516736 18.01094284 19.37890625 19.171875 C19.80059082 19.78998047 20.22227539 20.40808594 20.65673828 21.04492188 C23.05210413 24.53130677 25.49563808 27.98359681 27.9375 31.4375 C28.4413623 32.15147949 28.94522461 32.86545898 29.46435547 33.60107422 C31.93411679 37.09640769 34.41488234 40.58312988 36.91796875 44.0546875 C37.37502197 44.68963135 37.8320752 45.3245752 38.30297852 45.97875977 C39.15893132 47.16602874 40.01733757 48.35153438 40.87866211 49.53491211 C42.84541866 52.26304717 44.61686661 54.92884898 46 58 C48.31 58 50.62 58 53 58 C53 57.34 53 56.68 53 56 C52.34 56 51.68 56 51 56 C50.74347656 55.278125 50.48695312 54.55625 50.22265625 53.8125 C48.92917939 50.83708997 47.38965565 48.58709921 45.4375 46 C42.42364793 41.94351802 39.48784711 37.85210353 36.625 33.6875 C32.98855741 28.40555144 29.29679755 23.16820853 25.52661133 17.98071289 C23.09723248 14.61977846 20.91658162 11.19522359 18.8125 7.625 C17.55007171 5.52099116 17.55007171 5.52099116 16 4 C12.24356576 3.24586647 12.24356576 3.24586647 9 4 Z " fill="#FFFFFF" transform="translate(1,0)"/>
<path d="" fill="#FFFFFF" transform="translate(0,0)"/>
</svg>
