<?xml version="1.0" encoding="UTF-8"?>
<svg version="1.1" xmlns="http://www.w3.org/2000/svg" width="64" height="64">
<path d="M0 0 C0.77159454 -0.00095673 1.54318909 -0.00191345 2.33816528 -0.00289917 C3.96356285 -0.00357677 5.58896317 -0.00175191 7.21435547 0.00244141 C9.68072707 0.00778092 12.14691536 0.00248967 14.61328125 -0.00390625 C16.20052123 -0.00324511 17.7877611 -0.0019632 19.375 0 C20.46601517 -0.00303635 20.46601517 -0.00303635 21.57907104 -0.00613403 C34.49540249 0.05196486 34.49540249 0.05196486 38.1953125 3.0703125 C43.7775596 13.59070126 42.36847488 26.71511498 40.8203125 38.1328125 C40.1603125 38.1328125 39.5003125 38.1328125 38.8203125 38.1328125 C38.6140625 38.7515625 38.4078125 39.3703125 38.1953125 40.0078125 C36.18850496 43.10924233 34.39514198 43.23787209 30.8203125 44.1328125 C27.48554882 44.42273356 24.16624794 44.43693511 20.8203125 44.43359375 C19.86640625 44.43787888 18.9125 44.442164 17.9296875 44.44657898 C15.91927889 44.45230438 13.90884956 44.45283578 11.8984375 44.44848633 C8.830369 44.44532287 5.76326222 44.46882021 2.6953125 44.49414062 C0.73698038 44.49641352 -1.22135433 44.49711716 -3.1796875 44.49609375 C-4.54867188 44.50990837 -4.54867188 44.50990837 -5.9453125 44.52400208 C-11.10399805 44.48668631 -14.72831721 44.03828935 -19.1796875 41.1328125 C-23.46182149 35.64011742 -22.62087956 28.76672761 -22.5546875 22.1328125 C-22.56628906 20.97007813 -22.57789062 19.80734375 -22.58984375 18.609375 C-22.55293063 7.85535288 -22.55293063 7.85535288 -19.1796875 3.1328125 C-13.38643981 -0.155247 -6.49937442 -0.01798794 0 0 Z " fill="#FDFDFD" transform="translate(22.1796875,9.8671875)"/>
<path d="M0 0 C0.66 0 1.32 0 2 0 C2 0.66 2 1.32 2 2 C3.32 2 4.64 2 6 2 C6 2.66 6 3.32 6 4 C6.99 4 7.98 4 9 4 C9 4.66 9 5.32 9 6 C10.65 6 12.3 6 14 6 C13.67 7.32 13.34 8.64 13 10 C12.01 10 11.02 10 10 10 C10 10.66 10 11.32 10 12 C8.71086513 12.67154933 7.41859796 13.33708859 6.125 14 C5.40570312 14.37125 4.68640625 14.7425 3.9453125 15.125 C2 16 2 16 0 16 C0 10.72 0 5.44 0 0 Z " fill="#070707" transform="translate(26,24)"/>
<path d="M0 0 C0.66 0 1.32 0 2 0 C2 5.28 2 10.56 2 16 C2.66 16.33 3.32 16.66 4 17 C2.68 17.33 1.36 17.66 0 18 C0 12.06 0 6.12 0 0 Z " fill="#A6A6A6" transform="translate(24,24)"/>
</svg>
